<svg width="317" height="264" viewBox="0 0 317 264" fill="none" xmlns="http://www.w3.org/2000/svg">
<rect width="316.41" height="264" fill="#E0EAE4"/>
<path d="M158.204 37.5C142.737 37.5 127.616 42.0865 114.756 50.6797C101.895 59.2729 91.8713 71.4873 85.9521 85.7773C80.0331 100.067 78.4844 115.792 81.502 130.962C84.5195 146.132 91.9682 160.067 102.905 171.004L129.479 144.43C123.798 138.749 119.93 131.51 118.362 123.63C116.795 115.75 117.599 107.582 120.674 100.159C123.748 92.7363 128.955 86.3914 135.636 81.9277C142.316 77.4642 150.17 75.0821 158.204 75.082C166.239 75.082 174.093 77.4641 180.773 81.9277C187.454 86.3914 192.66 92.7364 195.734 100.159C198.809 107.582 199.614 115.75 198.047 123.63C196.479 131.51 192.61 138.748 186.929 144.43L213.503 171.004C224.44 160.067 231.889 146.132 234.906 130.962C237.924 115.792 236.375 100.067 230.456 85.7773C224.537 71.4873 214.513 59.2729 201.652 50.6797C188.792 42.0865 173.671 37.5 158.204 37.5Z" fill="#C3EAD2"/>
<path d="M172.855 123.433C176.296 117.258 175.362 109.312 170.083 104.108C163.742 97.8552 153.533 97.9268 147.28 104.268C141.028 110.609 141.1 120.819 147.441 127.072C152.279 131.841 159.366 132.93 165.232 130.363L206.421 163.712L172.855 123.433Z" fill="black"/>
<path d="M188.575 181.719C187.409 181.719 186.372 181.508 185.466 181.086C184.56 180.664 183.843 180.083 183.317 179.344C182.797 178.604 182.526 177.755 182.505 176.797H186.255C186.286 177.385 186.526 177.859 186.974 178.219C187.422 178.573 187.955 178.75 188.575 178.75C189.06 178.75 189.489 178.643 189.864 178.43C190.239 178.216 190.534 177.917 190.747 177.531C190.961 177.141 191.065 176.693 191.06 176.187C191.065 175.672 190.958 175.221 190.739 174.836C190.526 174.451 190.229 174.151 189.849 173.938C189.474 173.719 189.041 173.609 188.552 173.609C188.088 173.604 187.648 173.706 187.231 173.914C186.82 174.122 186.507 174.406 186.294 174.766L182.88 174.125L183.575 165.5H193.841V168.617H186.755L186.388 172.391H186.481C186.747 171.948 187.174 171.583 187.763 171.297C188.356 171.005 189.031 170.859 189.786 170.859C190.744 170.859 191.599 171.083 192.349 171.531C193.104 171.974 193.698 172.589 194.13 173.375C194.567 174.161 194.786 175.062 194.786 176.078C194.786 177.177 194.526 178.151 194.005 179C193.489 179.849 192.765 180.516 191.833 181C190.906 181.479 189.82 181.719 188.575 181.719Z" fill="black"/>
<path d="M125.998 181.891C124.602 181.891 123.399 181.56 122.389 180.898C121.378 180.232 120.6 179.276 120.053 178.031C119.506 176.781 119.235 175.279 119.24 173.523C119.245 171.768 119.519 170.279 120.061 169.055C120.607 167.826 121.383 166.891 122.389 166.25C123.399 165.604 124.602 165.281 125.998 165.281C127.394 165.281 128.597 165.604 129.607 166.25C130.623 166.891 131.404 167.826 131.951 169.055C132.498 170.284 132.769 171.773 132.764 173.523C132.764 175.284 132.49 176.789 131.943 178.039C131.396 179.289 130.618 180.245 129.607 180.906C128.602 181.562 127.399 181.891 125.998 181.891ZM125.998 178.727C126.831 178.727 127.506 178.302 128.021 177.453C128.537 176.599 128.792 175.289 128.787 173.523C128.787 172.367 128.67 171.414 128.436 170.664C128.201 169.909 127.876 169.346 127.459 168.977C127.042 168.607 126.555 168.422 125.998 168.422C125.17 168.422 124.501 168.841 123.99 169.68C123.48 170.513 123.222 171.794 123.217 173.523C123.212 174.695 123.324 175.667 123.553 176.437C123.787 177.208 124.115 177.784 124.537 178.164C124.959 178.539 125.446 178.727 125.998 178.727Z" fill="black"/>
</svg>
