<svg width="317" height="264" viewBox="0 0 317 264" fill="none" xmlns="http://www.w3.org/2000/svg">
<rect width="316.41" height="264" fill="white"/>
<path d="M158.205 37.5001C173.672 37.5002 188.793 42.0866 201.653 50.6798C214.514 59.2731 224.538 71.4875 230.457 85.7775C236.376 100.067 237.925 115.792 234.907 130.962C231.89 146.132 224.441 160.067 213.504 171.004L186.93 144.43C192.611 138.749 196.479 131.51 198.047 123.63C199.614 115.75 198.81 107.582 195.735 100.159C192.661 92.7365 187.454 86.3915 180.773 81.9279C174.093 77.4644 166.239 75.0822 158.205 75.0822C150.171 75.0822 142.316 77.4642 135.636 81.9279C128.955 86.3915 123.749 92.7365 120.675 100.159C117.6 107.582 116.795 115.75 118.362 123.63C119.93 131.51 123.799 138.749 129.48 144.43L102.906 171.004C91.9692 160.067 84.5205 146.132 81.5029 130.962C78.4854 115.792 80.0341 100.067 85.9531 85.7775C91.8723 71.4874 101.896 59.2731 114.757 50.6798C127.617 42.0867 142.738 37.5001 158.205 37.5001Z" fill="#E0EAE4"/>
<path d="M127.146 43.9321C138.854 38.8658 151.623 36.7408 164.341 37.7417C177.058 38.7426 189.338 42.8388 200.109 49.6743C210.88 56.5098 219.815 65.8766 226.136 76.9575C232.456 88.0386 235.97 100.498 236.371 113.249L198.808 114.429C198.599 107.806 196.774 101.334 193.491 95.5776C190.208 89.8218 185.567 84.9563 179.972 81.4058C174.377 77.8552 167.998 75.7275 161.393 75.2075C154.787 74.6876 148.153 75.7917 142.071 78.4233C135.99 81.055 130.645 85.1348 126.502 90.3062C122.359 95.4776 119.543 101.584 118.302 108.093C117.06 114.602 117.43 121.316 119.378 127.65C121.326 133.983 124.795 139.744 129.48 144.429L102.906 171.004C93.8858 161.984 87.2081 150.894 83.457 138.701C79.706 126.508 78.9954 113.582 81.3857 101.051C83.7762 88.5203 89.1957 76.764 97.1719 66.8081C105.148 56.8522 115.439 48.9985 127.146 43.9321Z" fill="#0D2A3C"/>
<path d="M174.452 117.555C172.412 124.323 166.055 129.181 158.644 129.011C149.741 128.808 142.689 121.426 142.892 112.523C143.096 103.619 150.479 96.567 159.382 96.7707C166.173 96.9261 171.887 101.259 174.125 107.257L226.737 113.634L174.452 117.555Z" fill="black"/>
<path d="M188.575 181.719C187.409 181.719 186.372 181.508 185.466 181.086C184.56 180.664 183.843 180.083 183.317 179.344C182.797 178.604 182.526 177.755 182.505 176.797H186.255C186.286 177.386 186.526 177.859 186.974 178.219C187.422 178.573 187.955 178.75 188.575 178.75C189.06 178.75 189.489 178.643 189.864 178.43C190.239 178.216 190.534 177.917 190.747 177.531C190.961 177.141 191.065 176.693 191.06 176.188C191.065 175.672 190.958 175.221 190.739 174.836C190.526 174.451 190.229 174.151 189.849 173.938C189.474 173.719 189.041 173.609 188.552 173.609C188.088 173.604 187.648 173.706 187.231 173.914C186.82 174.123 186.507 174.406 186.294 174.766L182.88 174.125L183.575 165.5H193.841V168.617H186.755L186.388 172.391H186.481C186.747 171.948 187.174 171.583 187.763 171.297C188.356 171.005 189.031 170.859 189.786 170.859C190.744 170.859 191.599 171.083 192.349 171.531C193.104 171.974 193.698 172.589 194.13 173.375C194.567 174.162 194.786 175.063 194.786 176.078C194.786 177.177 194.526 178.151 194.005 179C193.489 179.849 192.765 180.516 191.833 181C190.906 181.479 189.82 181.719 188.575 181.719Z" fill="black"/>
<path d="M125.998 181.891C124.602 181.891 123.399 181.56 122.389 180.899C121.378 180.232 120.6 179.276 120.053 178.031C119.506 176.781 119.235 175.279 119.24 173.524C119.245 171.768 119.519 170.279 120.061 169.055C120.607 167.826 121.383 166.891 122.389 166.25C123.399 165.604 124.602 165.281 125.998 165.281C127.394 165.281 128.597 165.604 129.607 166.25C130.623 166.891 131.404 167.826 131.951 169.055C132.498 170.284 132.769 171.774 132.764 173.524C132.764 175.284 132.49 176.789 131.943 178.039C131.396 179.289 130.618 180.245 129.607 180.906C128.602 181.563 127.399 181.891 125.998 181.891ZM125.998 178.727C126.831 178.727 127.506 178.302 128.021 177.453C128.537 176.599 128.792 175.289 128.787 173.524C128.787 172.367 128.67 171.414 128.436 170.664C128.201 169.909 127.876 169.346 127.459 168.977C127.042 168.607 126.555 168.422 125.998 168.422C125.17 168.422 124.501 168.841 123.99 169.68C123.48 170.513 123.222 171.794 123.217 173.524C123.212 174.695 123.324 175.667 123.553 176.438C123.787 177.208 124.115 177.784 124.537 178.164C124.959 178.539 125.446 178.727 125.998 178.727Z" fill="black"/>
</svg>
